<?xml version="1.0" encoding="utf-8"?>
<!-- Generator: Adobe Illustrator 24.3.0, SVG Export Plug-In . SVG Version: 6.00 Build 0)  -->
<svg version="1.1" id="Layer_1" xmlns="http://www.w3.org/2000/svg" xmlns:xlink="http://www.w3.org/1999/xlink" x="0px" y="0px"
	 viewBox="0 0 980.23 226.09" style="enable-background:new 0 0 980.23 226.09;" xml:space="preserve">
<g>
	<g>
		<g>
			<g>
				<polygon style="fill:#CEB283;" points="140.79,177.29 114.51,177.29 105.01,152.8 79.87,88.06 26.28,226.09 0,226.09 
					71.51,41.93 88.23,41.93 131.28,152.8 				"/>
				<polygon style="fill:#CEB283;" points="159.74,226.09 133.46,226.09 118.71,188.1 144.99,188.1 				"/>
				<path style="fill:#CEB283;" d="M263.8,73.01c-32.16,0-54.21-0.05-86.37-0.05v69.03h24.58V97.55c23.94,0,37.82-0.05,61.79-0.05
					c15.19,0,27.62,12.46,27.63,27.65c-0.01,15.19-12.43,27.65-27.63,27.65H72.08l-9.51,24.49h114.86v47.66h24.58v-47.66h61.79
					c28.84-0.01,52.16-23.3,52.16-52.14C315.96,96.31,292.64,73.02,263.8,73.01z"/>
				<path style="fill:#CEB283;" d="M367.9,144.67c-10.82-10.82-10.82-28.21,0-39.03c5.02-5.03,11.93-8.09,19.51-8.09h64.13
					c4.26,0,7.66,3.41,7.66,7.67c0,4.25-3.41,7.63-7.66,7.63h-43.57v24.59h43.57c17.76,0,32.24-14.46,32.24-32.23
					c0-17.76-14.48-32.24-32.25-32.24H387.4c-13.87,0-27.07,5.48-36.89,15.29c-20.35,20.36-20.35,53.43,0.01,73.79
					c9.41,9.41,22.45,15.24,36.88,15.24h96.34v-24.48l-96.33-0.01C379.83,152.8,372.92,149.69,367.9,144.67z"/>
				<path style="fill:#CEB283;" d="M510.9,72.97v104.37h24.59V72.97H510.9z"/>
				<path style="fill:#CEB283;" d="M635.4,72.97c-41,0-74.28,33.28-74.28,74.28v30.09h24.59v-30.1c0-27.42,22.27-49.69,49.69-49.69
					h12.29V72.97H635.4z"/>
				<path style="fill:#CEB283;" d="M757.69,73.02c-7.37,0-14.74,0-22.11-0.01c-7.36,0.01-14.73,0.01-22.11,0.01
					c-28.83,0-52.15,23.29-52.15,52.14c0,28.84,23.32,52.13,52.15,52.13h44.22c28.84,0,52.16-23.29,52.16-52.13
					C809.85,96.31,786.53,73.02,757.69,73.02z M757.69,152.8h-44.21c-15.19,0-27.62-12.46-27.62-27.65
					c0-15.18,12.43-27.64,27.62-27.64c7.38,0,14.74,0,22.1,0.01c7.37-0.01,14.73-0.01,22.11-0.01c15.19,0,27.62,12.46,27.62,27.64
					C785.31,140.35,772.88,152.8,757.69,152.8z"/>
				<path style="fill:#CEB283;" d="M961.67,125.15c17.81-15.01,18.56-30.51,18.56-52.18h-24.59c0,19.24-2.78,39.89-27.6,39.89
					h-44.18c-24.82,0-27.61-20.65-27.61-39.89h-24.58c0,21.67,0.75,37.18,18.56,52.18c-17.81,15.02-18.56,30.52-18.56,52.19h24.58
					c0-19.24,2.77-39.9,27.6-39.9h44.19c24.83,0,27.6,20.66,27.6,39.9h24.59C980.23,155.67,979.48,140.17,961.67,125.15z"/>
			</g>
		</g>
		<path id="XMLID_9_" style="fill:#CEB283;" d="M523.19,0c0,16.48-13.36,29.83-29.83,29.83c16.47,0,29.83,13.36,29.83,29.83
			c0-16.48,13.36-29.83,29.83-29.83C536.55,29.83,523.19,16.48,523.19,0z"/>
	</g>
</g>
<g>
</g>
<g>
</g>
<g>
</g>
<g>
</g>
<g>
</g>
<g>
</g>
<g>
</g>
<g>
</g>
<g>
</g>
<g>
</g>
<g>
</g>
<g>
</g>
<g>
</g>
<g>
</g>
<g>
</g>
</svg>
